<svg width="18" height="18" viewBox="0 0 24 24" fill="none" xmlns="http://www.w3.org/2000/svg">
  <path d="M19.14 12.94C19.18 12.64 19.2 12.33 19.2 12C19.2 11.67 19.18 11.36 19.14 11.06L21.16 9.48C21.38 9.32 21.45 9.02 21.34 8.74L19.34 5.26C19.23 4.98 18.96 4.84 18.66 4.88L16.11 5.23C15.68 4.69 15.16 4.23 14.57 3.87L14.16 1.18C14.11 0.88 13.86 0.66 13.56 0.66H10.44C10.14 0.66 9.89 0.88 9.84 1.18L9.43 3.87C8.84 4.23 8.32 4.69 7.89 5.23L5.34 4.88C5.04 4.84 4.77 4.98 4.66 5.26L2.66 8.74C2.55 9.02 2.62 9.32 2.84 9.48L4.86 11.06C4.82 11.36 4.8 11.67 4.8 12C4.8 12.33 4.82 12.64 4.86 12.94L2.84 14.52C2.62 14.68 2.55 14.98 2.66 15.26L4.66 18.74C4.77 19.02 5.04 19.16 5.34 19.12L7.89 18.77C8.32 19.31 8.84 19.77 9.43 20.13L9.84 22.82C9.89 23.12 10.14 23.34 10.44 23.34H13.56C13.86 23.34 14.11 23.12 14.16 22.82L14.57 20.13C15.16 19.77 15.68 19.31 16.11 18.77L18.66 19.12C18.96 19.16 19.23 19.02 19.34 18.74L21.34 15.26C21.45 14.98 21.38 14.68 21.16 14.52L19.14 12.94ZM12 15.6C10.02 15.6 8.4 13.98 8.4 12C8.4 10.02 10.02 8.4 12 8.4C13.98 8.4 15.6 10.02 15.6 12C15.6 13.98 13.98 15.6 12 15.6Z" fill="currentColor"/>
</svg>

